# AST/ASF file generated using VICON BodyLanguage
# -----------------------------------------------
:version 1.10
:name VICON
:units
  mass 1.0
  length 0.45
  angle deg
:documentation
   .ast/.asf automatically generated from VICON data using
   VICON BodyBuilder and BodyLanguage model FoxedUp or BRILLIANT.MOD
:root
   order TX TY TZ RX RY RZ
   axis XYZ
   position 0 0 0  
   orientation 0 0 0 
:bonedata
  begin
     id 1 
     name lhipjoint
     direction 0.692814 -0.645514 0.321437 
     length 2.38754 
     axis 0 0 0  XYZ
  end
  begin
     id 2 
     name lfemur
     direction 0.34202 -0.939693 0  
     length 6.41921  
     axis 0 0 20  XYZ
    dof rx ry rz
    limits (-160.0 20.0)
           (-70.0 70.0)
           (-60.0 70.0)
  end
  begin
     id 3 
     name ltibia
     direction 0.34202 -0.939693 0   
     length 6.98247   
     axis 0 0 20   XYZ
    dof rx
    limits (-10.0 170.0)
  end
  begin
     id 4 
     name lfoot
     direction 0.0947186 -0.260237 0.960888   
     length 1.83034   
     axis -90 7.62852e-016 20   XYZ
    dof rx rz
    limits (-45.0 90.0)
           (-70.0 20.0)
  end
  begin
     id 5 
     name ltoes
     direction 1.53538e-011 -4.21952e-011 1   
     length 0.920499   
     axis -90 7.62852e-016 20   XYZ
    dof rx
    limits (-90.0 20.0)
  end
  begin
     id 6 
     name rhipjoint
     direction -0.631686 -0.693949 0.345555   
     length 2.2209  
     axis 0 0 0  XYZ 
  end
  begin
     id 7 
     name rfemur
     direction -0.34202 -0.939693 0   
     length 6.49542   
     axis 0 0 -20   XYZ
    dof rx ry rz
    limits (-160.0 20.0)
           (-70.0 70.0)
           (-70.0 60.0)
  end
  begin
     id 8 
     name rtibia
     direction -0.34202 -0.939693 0   
     length 7.21712   
     axis 0 0 -20   XYZ
    dof rx
    limits (-10.0 170.0)
 end
 begin
     id 9 
     name rfoot
     direction -0.0825378 -0.226771 0.970444   
     length 1.89724  
     axis -90 -7.62852e-016 -20   XYZ
    dof rx rz
    limits (-45.0 90.0)
           (-20.0 70.0)
  end
  begin
     id 10 
     name rtoes
     direction -1.53515e-011 -4.22016e-011 1   
     length 0.955868   
     axis -90 -7.62852e-016 -20   XYZ
    dof rx
    limits (-90.0 20.0)
  end
  begin
     id 11 
     name lowerback
     direction -0.0104711 0.984802 -0.173368   
     length 1.84931   
     axis 0 0 0   XYZ
    dof rx ry rz
    limits (-20.0 45.0)
           (-30.0 30.0)
           (-30.0 30.0)
  end
  begin
     id 12 
     name upperback
     direction -0.00286433 0.999996 -0.000382853   
     length 1.85768   
     axis 0 0 0   XYZ
    dof rx ry rz
    limits (-20.0 45.0)
           (-30.0 30.0)
           (-30.0 30.0)
  end
  begin
     id 13 
     name thorax
     direction 0.00167534 0.996793 0.0800069   
     length 1.92   
     axis 0 0 0   XYZ
    dof rx ry rz
    limits (-20.0 45.0)
           (-30.0 30.0)
           (-30.0 30.0)
  end
  begin
     id 14 
     name lowerneck
     direction -0.0672491 0.995415 0.068018   
     length 1.58923   
     axis 0 0 0   XYZ
    dof rx ry rz
    limits (-20.0 45.0)
           (-30.0 30.0)
           (-30.0 30.0)
  end
  begin
     id 15 
     name upperneck
     direction 0.0958019 0.982476 -0.159884   
     length 1.60189   
     axis 0 0 0   XYZ
    dof rx ry rz
    limits (-20.0 45.0)
           (-30.0 30.0)
           (-30.0 30.0)
  end
  begin
     id 16
     name head
     direction 0.032989 0.997338 -0.0650226  
     length 1.61681  
     axis 0 0 0   XYZ
    dof rx ry rz
    limits (-20.0 45.0)
           (-30.0 30.0)
           (-30.0 30.0)
  end
  begin
     id 17 
     name lclavicle
     direction 0.954279 0.298875 -0.00496069  
     length 2.99449  
     axis 0 0 0   XYZ
    dof ry rz
    limits (-20.0 10.0)
           (0.0 20.0)
  end
  begin
     id 18 
     name lhumerus
     direction 1 -4.48985e-011 -4.2057e-027   
     length 4.79185   
     axis 180 -30 -90   XYZ
    dof rx ry rz
    limits (-60.0 90.0)
           (-90.0 90.0)
           (-90.0 90.0)
  end
  begin
     id 19
     name lradius
     direction 1 -4.48945e-011 1.15441e-028   
     length 2.65553   
     axis 180 -30 -90   XYZ
    dof rx
    limits (-10.0 170.0)
  end
  begin
     id 20
     name lwrist
     direction 1 -4.4899e-011 4.8894e-028   
     length 1.32777   
     axis -2.56392e-016 90 90   XYZ
    dof ry
    limits (-180.0 0.0)
 end
  begin
     id 21 
     name lhand
     direction 1 -4.48908e-011 9.7788e-028   
     length 0.743904   
     axis -6.23971e-016 90 90   XYZ
    dof rx rz
    limits (-90.0 90.0)
           (-45.0 45.0)
  end
  begin
     id 22 
     name lfingers
     direction 1 -4.49068e-011 1.95576e-027   
     length 0.599754   
     axis -1.24794e-015 90 90   XYZ
    dof rx
    limits (0.0 90.0)
  end
  begin
     id 23
     name lthumb
     direction 0.707107 -6.34883e-011 0.707107   
     length 0.861131   
     axis -90 45 2.85299e-015   XYZ
    dof rx rz
    limits (-45.0 45.0)
           (-45.0 45.0)
  end
  begin
     id 24 
     name rclavicle
     direction -0.957921 0.286916 0.00811568   
     length 3.06817  
     axis 0 0 0   XYZ 
    dof ry rz
    limits (-10.0 20.0)
           (-20.0 0.0)
  end
  begin
     id 25 
     name rhumerus
     direction -1 -4.48971e-011 -3.07942e-027  
     length 4.77254   
     axis 180 30 90   XYZ
    dof rx ry rz
    limits (-90.0 60.0)
           (-90.0 90.0)
           (-90.0 90.0)
  end
  begin
     id 26 
     name rradius
     direction -1 -4.48957e-011 -9.6815e-028   
     length 2.75995   
     axis 180 30 90   XYZ
    dof rx
    limits (-10.0 170.0)
  end
  begin
     id 27 
     name rwrist
     direction -1 -4.48979e-011 4.8894e-028   
     length 1.37997   
     axis -2.56392e-016 -90 -90   XYZ
    dof ry
    limits (-180.0 0.0)
  end
  begin
     id 28
     name rhand
     direction -1 -4.48906e-011 9.7788e-028   
     length 0.701619   
     axis -6.23971e-016 -90 -90   XYZ
    dof rx rz
    limits (-90.0 90.0)
           (-45.0 45.0)
  end
  begin
     id 29
     name rfingers
     direction -1 -4.49018e-011 1.95576e-027   
     length 0.565663   
     axis -1.24794e-015 -90 -90   XYZ
    dof rx
    limits (0.0 90.0)
  end
  begin
     id 30
     name rthumb
     direction -0.707107 -6.34881e-011 0.707107   
     length 0.812183   
     axis -90 -45 -2.85299e-015   XYZ
    dof rx rz
    limits (-45.0 45.0)
           (-45.0 45.0)
  end
:hierarchy
  begin
    root lhipjoint rhipjoint lowerback
    lhipjoint lfemur
    lfemur ltibia
    ltibia lfoot
    lfoot ltoes
    rhipjoint rfemur
    rfemur rtibia
    rtibia rfoot
    rfoot rtoes
    lowerback upperback
    upperback thorax
    thorax lowerneck lclavicle rclavicle
    lowerneck upperneck
    upperneck head
    lclavicle lhumerus
    lhumerus lradius
    lradius lwrist
    lwrist lhand lthumb
    lhand lfingers
    rclavicle rhumerus
    rhumerus rradius
    rradius rwrist
    rwrist rhand rthumb
    rhand rfingers
  end

#!OML:ASF F:\VICON\USERDATA\INSTALL\rory3\rory3.ASF
:FULLY-SPECIFIED
:DEGREES
145
root -9.86898 15.7704 6.7236 -174.72 53.3513 -171.356
lowerback 10.1954 -0.391071 3.22661
upperback -0.729063 0.0140321 1.5186
thorax -6.49941 -0.0607474 -0.226667
lowerneck -11.8673 -7.67247 -11.983
upperneck 30.2001 -8.76107 5.77662
head 12.886 -4.13362 3.05272
rclavicle 6.79067e-014 1.02374e-014
rhumerus -34.0601 -3.74539 -82.5552
rradius 27.2305
rwrist 10.7743
rhand -16.9773 15.2897
rfingers 7.12502
rthumb 9.25726 -14.4871
lclavicle 6.79067e-014 1.02374e-014
lhumerus -33.9281 11.1989 81.2119
lradius 24.9259
lwrist -3.73269
lhand -13.2696 12.4354
lfingers 7.12502
lthumb 12.8333 42.0209
rfemur -11.709 4.1118 31.1684
rtibia 28.0054
rfoot -15.0405 -16.9541
rtoes 1.92181
lfemur -12.5158 -0.105223 -14.9298
ltibia 67.424
lfoot 15.7401 9.95452
ltoes 2.34161
146
root -9.78583 15.7636 6.68344 -174.451 53.3784 -171.017
lowerback 10.2522 -0.326598 3.44615
upperback -0.7455 0.135365 1.5628
thorax -6.5461 -0.00791281 -0.322416
lowerneck -11.7678 -7.73203 -12.0639
upperneck 30.145 -8.85562 5.83666
head 12.8613 -4.17865 3.07587
rclavicle 8.97171e-014 -1.74931e-014
rhumerus -33.7023 -3.72804 -82.6234
rradius 27.2405
rwrist 10.8282
rhand -17.0528 15.2578
rfingers 7.12502
rthumb 9.18439 -14.5222
lclavicle 8.97171e-014 -1.74931e-014
lhumerus -33.7828 10.9948 81.3832
lradius 25.1887
lwrist -3.62959
lhand -13.1838 12.6573
lfingers 7.12502
lthumb 12.916 42.2376
rfemur -11.3359 4.03546 31.5157
rtibia 28.0247
rfoot -15.2595 -17.0147
rtoes 1.52483
lfemur -13.8224 -0.0732016 -14.7529
ltibia 68.2785
lfoot 12.9871 9.44354
ltoes 0.486236
147
root -9.70458 15.7577 6.64038 -174.151 53.4809 -170.663
lowerback 10.3165 -0.260476 3.73857
upperback -0.763716 0.266167 1.57334
thorax -6.59766 0.0459386 -0.496114
lowerneck -11.7657 -7.77959 -12.1789
upperneck 30.1804 -8.92276 5.92773
head 12.8958 -4.20903 3.12035
rclavicle 5.75544e-014 8.64713e-015
rhumerus -33.3546 -3.49692 -82.7964
rradius 27.3765
rwrist 10.7544
rhand -17.2118 14.964
rfingers 7.12502
rthumb 9.03093 -14.8227
lclavicle 5.75544e-014 8.64713e-015
lhumerus -33.6378 10.8399 81.4874
lradius 25.4482
lwrist -3.50113
lhand -13.1662 12.7353
lfingers 7.12502
lthumb 12.933 42.3145
rfemur -10.9819 3.93238 31.8325
rtibia 28.0514
rfoot -15.5726 -16.9249
rtoes 1.63359
lfemur -15.15 -0.013445 -14.6025
ltibia 68.9688
lfoot 10.376 9.60756
ltoes -2.933
148
root -9.62078 15.7523 6.602 -174.006 53.6506 -170.573
lowerback 10.3177 -0.186758 3.76694
upperback -0.791012 0.365608 1.54148
thorax -6.62333 0.0918596 -0.561129
lowerneck -11.7554 -7.78485 -12.2392
upperneck 30.212 -8.94057 6.01157
head 12.9172 -4.21247 3.16151
rclavicle 6.74377e-014 -1.71949e-014
rhumerus -32.9938 -3.40472 -82.9666
rradius 27.5408
rwrist 11.0008
rhand -17.2761 14.5982
rfingers 7.12502
rthumb 8.9689 -15.1911
lclavicle 6.74377e-014 -1.71949e-014
lhumerus -33.5766 10.5806 81.5795
lradius 25.788
lwrist -3.07461
lhand -13.1477 12.5884
lfingers 7.12502
lthumb 12.9508 42.1665
rfemur -10.717 3.97759 31.9836
rtibia 28.1229
rfoot -15.9406 -16.883
rtoes 1.71083
lfemur -16.4946 0.0731804 -14.6171
ltibia 69.4433
lfoot 8.08578 9.87655
ltoes -6.97869
149
root -9.53484 15.7442 6.5644 -173.984 53.8421 -170.588
lowerback 10.3075 -0.094473 3.69768
upperback -0.782053 0.473807 1.48897
thorax -6.60371 0.145958 -0.59451
lowerneck -11.7313 -7.78778 -12.1987
upperneck 30.1918 -8.97502 6.06739
head 12.9075 -4.21654 3.17154
rclavicle -5.14045e-015 -9.0447e-015
rhumerus -32.6271 -3.25038 -83.1734
rradius 27.7286
rwrist 11.0146
rhand -17.2293 14.43
rfingers 7.12502
rthumb 9.0141 -15.3574
lclavicle -5.14045e-015 -9.0447e-015
lhumerus -33.4908 10.1392 81.7265
lradius 26.1511
lwrist -2.50311
lhand -13.151 12.6189
lfingers 7.12502
lthumb 12.9476 42.1971
rfemur -10.4534 4.11127 32.0949
rtibia 28.2759
rfoot -16.3406 -16.9405
rtoes 1.91617
lfemur -17.6871 0.0573028 -14.7296
ltibia 69.7032
lfoot 5.97521 10.0719
ltoes -8.30899
150
root -9.44988 15.7336 6.52352 -174.051 54.0863 -170.643
lowerback 10.3722 0.03425 3.61855
upperback -0.774207 0.632867 1.43073
thorax -6.626 0.224574 -0.636649
lowerneck -11.7127 -7.82202 -12.1553
upperneck 30.1669 -9.0462 6.09187
head 12.8996 -4.24053 3.16223
rclavicle 5.30227e-014 -1.5704e-014
rhumerus -32.3226 -3.1228 -83.3288
rradius 27.8817
rwrist 10.8958
rhand -17.1098 14.5311
rfingers 7.12502
rthumb 9.12938 -15.2513
lclavicle 5.30227e-014 -1.5704e-014
lhumerus -33.4183 9.88184 81.8074
lradius 26.4931
lwrist -2.24359
lhand -13.0524 12.8355
lfingers 7.12502
lthumb 13.0427 42.4077
rfemur -10.1467 4.20046 32.1728
rtibia 28.4766
rfoot -16.8791 -16.8926
rtoes 2.95596
lfemur -18.7322 0.0482814 -14.8881
ltibia 69.7886
lfoot 3.85991 10.0902
ltoes -7.1093
151
root -9.36605 15.7242 6.48208 -174.037 54.3429 -170.633
lowerback 10.4345 0.138974 3.58496
upperback -0.773664 0.766943 1.38445
thorax -6.65539 0.289564 -0.688048
lowerneck -11.7032 -7.84433 -12.1795
upperneck 30.1105 -9.09471 6.14815
head 12.8841 -4.25966 3.17919
rclavicle 4.50682e-015 -1.31198e-014
rhumerus -32.0516 -2.84893 -83.5875
rradius 28.1075
rwrist 10.6709
rhand -17.0581 14.4857
rfingers 7.12502
rthumb 9.17931 -15.2945
lclavicle 4.50682e-015 -1.31198e-014
lhumerus -33.3772 9.73067 81.8246
lradius 26.7605
lwrist -2.00275
lhand -13.1404 12.7712
lfingers 7.12502
lthumb 12.9579 42.3488
rfemur -9.86561 4.41181 32.2655
rtibia 28.6678
rfoot -17.0126 -16.9579
rtoes 2.34973
lfemur -19.7952 0.150051 -14.9737
ltibia 69.7432
lfoot 1.92351 9.98514
ltoes -7.2527
152
root -9.2822 15.7128 6.44173 -173.649 54.4385 -170.196
lowerback 10.5 0.189435 3.82141
upperback -0.794203 0.872603 1.42178
thorax -6.70839 0.333247 -0.799095
lowerneck -11.6117 -7.85943 -12.1477
upperneck 29.9758 -9.13254 6.1309
head 12.8099 -4.27927 3.16053
rclavicle -6.82111e-014 -1.23246e-014
rhumerus -31.8269 -2.71391 -83.7923
rradius 28.3958
rwrist 10.5911
rhand -17.1818 14.1604
rfingers 7.12502
rthumb 9.05996 -15.625
lclavicle -6.82111e-014 -1.23246e-014
lhumerus -33.3467 9.43743 81.9501
lradius 26.9571
lwrist -1.62063
lhand -13.4617 12.5761
lfingers 7.12502
lthumb 12.6481 42.1732
rfemur -9.5633 4.63696 32.6444
rtibia 28.8015
rfoot -17.2506 -17.0303
rtoes 2.20082
lfemur -20.9311 0.165213 -14.7417
ltibia 69.6026
lfoot 0.322659 9.8251
ltoes -8.18606
153
root -9.19943 15.6995 6.40044 -173.35 54.4477 -169.833
lowerback 10.5954 0.187563 4.02581
upperback -0.803542 0.906196 1.45677
thorax -6.76945 0.342661 -0.8834
lowerneck -11.5606 -7.83876 -12.1283
upperneck 29.8767 -9.1282 6.17223
head 12.758 -4.273 3.17368
rclavicle -6.03063e-014 -1.76918e-014
rhumerus -31.5735 -2.60472 -83.968
rradius 28.632
rwrist 10.6351
rhand -17.4459 13.8841
rfingers 7.12502
rthumb 8.80504 -15.9122
lclavicle -6.03063e-014 -1.76918e-014
lhumerus -33.312 9.29721 82.0139
lradius 27.1826
lwrist -1.32636
lhand -13.4969 12.6086
lfingers 7.12502
lthumb 12.6142 42.2078
rfemur -9.2356 4.72327 32.9966
rtibia 28.915
rfoot -17.6331 -17.1143
rtoes 2.98634
lfemur -22.0496 0.0189217 -14.5779
ltibia 69.3285
lfoot -0.925206 9.80648
ltoes -9.09411
154
root -9.1165 15.6881 6.35783 -173.272 54.5204 -169.687
lowerback 10.724 0.199264 4.10801
upperback -0.786483 0.937148 1.42591
thorax -6.8215 0.353543 -0.968284
lowerneck -11.5648 -7.79881 -12.016
upperneck 29.7559 -9.10791 6.18659
head 12.6991 -4.253 3.16128
rclavicle -9.1677e-014 -1.72943e-014
rhumerus -31.3129 -2.30457 -84.2957
rradius 28.9028
rwrist 10.3861
rhand -17.6102 13.7586
rfingers 7.12502
rthumb 8.6465 -16.0443
lclavicle -9.1677e-014 -1.72943e-014
lhumerus -33.2533 9.45777 81.8762
lradius 27.3563
lwrist -1.40078
lhand -13.3484 12.626
lfingers 7.12502
lthumb 12.7574 42.2162
rfemur -8.8656 4.82373 33.2112
rtibia 29.0343
rfoot -17.9985 -17.3191
rtoes 3.24848
lfemur -23.0564 -0.13967 -14.5644
ltibia 68.8893
lfoot -2.18081 9.6246
ltoes -10.8652
155
root -9.03108 15.6754 6.31156 -173.295 54.6153 -169.716
lowerback 10.756 0.252502 4.13946
upperback -0.766211 1.00515 1.33427
thorax -6.81267 0.383529 -1.09381
lowerneck -11.6747 -7.81177 -11.9193
upperneck 29.7429 -9.15413 6.21697
head 12.7167 -4.25878 3.14584
rclavicle 5.84054e-014 -1.19271e-015
rhumerus -31.134 -1.89471 -84.7032
rradius 29.3028
rwrist 9.8402
rhand -17.6226 13.5866
rfingers 7.12502
rthumb 8.63457 -16.2168
lclavicle 5.84054e-014 -1.19271e-015
lhumerus -33.1819 9.29235 81.8475
lradius 27.4902
lwrist -1.22179
lhand -13.3787 12.6224
lfingers 7.12502
lthumb 12.7281 42.2145
rfemur -8.50982 5.01156 33.3008
rtibia 29.1481
rfoot -18.5369 -17.3993
rtoes 4.07574
lfemur -23.9687 -0.361431 -14.6711
ltibia 68.2593
lfoot -3.48154 9.318
ltoes -11.9456
156
root -8.9439 15.6609 6.26462 -173.35 54.6725 -169.823
lowerback 10.758 0.455722 4.19267
upperback -0.770395 1.26425 1.12949
thorax -6.79954 0.502571 -1.38141
lowerneck -11.7173 -7.98985 -11.6341
upperneck 29.7667 -9.49761 6.27094
head 12.7577 -4.36981 3.06265
rclavicle 1.02902e-013 2.18663e-015
rhumerus -31.0864 -2.35449 -84.9262
rradius 29.7173
rwrist 9.72346
rhand -17.4934 13.613
rfingers 7.12502
rthumb 8.75927 -16.1852
lclavicle 1.02902e-013 2.18663e-015
lhumerus -32.9975 8.33332 82.0208
lradius 27.5805
lwrist -0.71381
lhand -13.5126 12.7418
lfingers 7.12502
lthumb 12.599 42.3419
rfemur -8.14218 5.08585 33.3466
rtibia 29.1979
rfoot -18.7801 -17.5652
rtoes 3.71041
lfemur -24.8332 -0.626224 -14.8015
ltibia 67.463
lfoot -4.68989 9.19394
ltoes -12.0244
157
root -8.8564 15.6582 6.21852 -173.633 54.7451 -170.213
lowerback 10.7827 0.647427 4.03146
upperback -0.782664 1.48161 0.930153
thorax -6.81273 0.608325 -1.53636
lowerneck -11.5288 -8.1325 -11.3957
upperneck 29.5318 -9.79705 6.30912
head 12.6399 -4.47859 2.99043
rclavicle -6.65929e-015 2.18663e-014
rhumerus -31.0464 -2.59889 -85.1288
rradius 30.1269
rwrist 9.51391
rhand -17.4854 13.6224
rfingers 7.12502
rthumb 8.76691 -16.1755
lclavicle -6.65929e-015 2.18663e-014
lhumerus -32.8674 7.71859 82.1049
lradius 27.6868
lwrist -0.432234
lhand -13.4142 12.8615
lfingers 7.12502
lthumb 12.6939 42.4557
rfemur -7.78094 5.14404 33.219
rtibia 29.2397
rfoot -18.9475 -17.8182
rtoes 3.08546
lfemur -25.7605 -1.03953 -15.0323
ltibia 66.5158
lfoot -6.06791 9.27835
ltoes -9.77047
158
root -8.7684 15.6605 6.16883 -173.773 54.8432 -170.301
lowerback 10.8945 0.564257 4.00377
upperback -0.758757 1.37396 0.941809
thorax -6.85755 0.556601 -1.49296
lowerneck -11.5054 -8.02523 -11.5986
upperneck 29.3927 -9.61509 6.35921
head 12.5743 -4.42038 3.07065
rclavicle -6.57729e-014 9.14409e-015
rhumerus -30.8811 -1.74998 -85.5094
rradius 30.482
rwrist 8.95374
rhand -17.5901 13.525
rfingers 7.12502
rthumb 8.6659 -16.2771
lclavicle -6.57729e-014 9.14409e-015
lhumerus -32.9414 8.26509 81.9298
lradius 27.7261
lwrist -0.527825
lhand -13.1963 12.7412
lfingers 7.12502
lthumb 12.904 42.3222
rfemur -7.28722 5.13282 33.2641
rtibia 29.2517
rfoot -19.0885 -17.9584
rtoes 2.37182
lfemur -26.5078 -1.45096 -15.0444
ltibia 65.426
lfoot -7.31082 9.10694
ltoes -6.77708
159
root -8.68007 15.6467 6.11853 -173.729 54.9574 -170.142
lowerback 10.9987 0.454466 4.08892
upperback -0.715591 1.2489 0.991067
thorax -6.87726 0.494418 -1.46994
lowerneck -11.635 -7.88601 -11.772
upperneck 29.3431 -9.37985 6.40601
head 12.5686 -4.3317 3.15025
rclavicle -2.97991e-014 -8.54774e-015
rhumerus -30.6705 -0.996902 -85.903
rradius 30.7646
rwrist 8.61825
rhand -17.4717 13.6283
rfingers 7.12502
rthumb 8.78018 -16.1691
lclavicle -2.97991e-014 -8.54774e-015
lhumerus -32.9912 8.8271 81.7436
lradius 27.6892
lwrist -0.603454
lhand -13.2095 12.6301
lfingers 7.12502
lthumb 12.8912 42.2119
rfemur -6.72375 5.11366 33.442
rtibia 29.1915
rfoot -19.4004 -17.7397
rtoes 3.25
lfemur -27.005 -1.51251 -15.0204
ltibia 64.1721
lfoot -7.84255 8.63261
ltoes -6.07759
